<svg width="16" height="17" viewBox="0 0 16 17" fill="none" xmlns="http://www.w3.org/2000/svg">
<path id="Vector" d="M6.22222 2.76969V4.54747H1.77778V14.3252H11.5556V9.88081H13.3333V15.2141C13.3333 15.4499 13.2397 15.676 13.073 15.8427C12.9063 16.0094 12.6802 16.103 12.4444 16.103H0.888889C0.653141 16.103 0.427048 16.0094 0.260349 15.8427C0.0936505 15.676 0 15.4499 0 15.2141V3.65858C0 3.42283 0.0936505 3.19674 0.260349 3.03004C0.427048 2.86334 0.653141 2.76969 0.888889 2.76969H6.22222ZM16 0.103027V7.21414H14.2222V3.13681L7.29511 10.0648L6.03822 8.80792L12.9644 1.88081H8.88889V0.103027H16Z" fill="#607B96"/>
</svg>
